HIERARCHY
ROOT Hips
{
	OFFSET -3.958830 18.904000 13.208200
	CHANNELS 6 Xposition Yposition Zposition Zrotation Yrotation Xrotation 
	JOINT LHipJoint
	{
		OFFSET 0.000000 0.000000 0.000000
		CHANNELS 3 Zrotation Yrotation Xrotation
		JOINT LeftUpLeg
		{
			OFFSET 1.800000 -1.400000 0.085000
			CHANNELS 3 Zrotation Yrotation Xrotation
			JOINT LeftLeg
			{
				OFFSET 2.215000 -6.000000 0.000000
				CHANNELS 3 Zrotation Yrotation Xrotation
				JOINT LeftFoot
				{
					OFFSET 2.500000 -6.900000 0.000000
					CHANNELS 3 Zrotation Yrotation Xrotation
					JOINT LeftToeBase
					{
						OFFSET 0.200000 -0.500000 1.950000
						CHANNELS 3 Zrotation Yrotation Xrotation
						End Site
						{
							OFFSET 0.000000 0.000000 0.000000
						}
					}
				}
			}
		}
	}
	JOINT RHipJoint
	{
		OFFSET 0.000000 0.000000 0.000000
		CHANNELS 3 Zrotation Yrotation Xrotation
		JOINT RightUpLeg
		{
			OFFSET -1.800000 -1.400000 0.085000
			CHANNELS 3 Zrotation Yrotation Xrotation
			JOINT RightLeg
			{
				OFFSET -2.215000 -6.000000 0.000000
				CHANNELS 3 Zrotation Yrotation Xrotation
				JOINT RightFoot
				{
					OFFSET -2.500000 -6.900000 0.000000
					CHANNELS 3 Zrotation Yrotation Xrotation
					JOINT RightToeBase
					{
						OFFSET -0.200000 -0.500000 1.950000
						CHANNELS 3 Zrotation Yrotation Xrotation
						End Site
						{
							OFFSET 0.000000 0.000000 0.000000
						}
					}
				}
			}
		}
	}
	JOINT LowerBack
	{
		OFFSET 0.000000 0.000000 0.000000
		CHANNELS 3 Zrotation Yrotation Xrotation
		JOINT Spine
		{
			OFFSET -0.087000 1.940000 -0.288900
			CHANNELS 3 Zrotation Yrotation Xrotation
			JOINT Spine1
			{
				OFFSET 0.000000 1.950000 0.060000
				CHANNELS 3 Zrotation Yrotation Xrotation
				JOINT Neck
				{
					OFFSET 0.000000 0.000000 0.000000
					CHANNELS 3 Zrotation Yrotation Xrotation
					JOINT Neck1
					{
						OFFSET 0.000000 1.600000 0.340000
						CHANNELS 3 Zrotation Yrotation Xrotation
						JOINT Head
						{
							OFFSET 0.000000 1.667000 -0.240000
							CHANNELS 3 Zrotation Yrotation Xrotation
							End Site
							{
								OFFSET 0.000000 0.000000 0.000000
							}
						}
					}
				}
				JOINT LeftShoulder
				{
					OFFSET 0.000000 0.000000 0.000000
					CHANNELS 3 Zrotation Yrotation Xrotation
					JOINT LeftArm
					{
						OFFSET 2.700000 1.550000 -0.730000
						CHANNELS 3 Zrotation Yrotation Xrotation
						JOINT LeftForeArm
						{
							OFFSET 5.450000 0.000000 0.000000
							CHANNELS 3 Zrotation Yrotation Xrotation
							JOINT LeftHand
							{
								OFFSET 3.450000 0.000000 0.000000
								CHANNELS 3 Zrotation Yrotation Xrotation
								JOINT LeftHandIndex1
								{
									OFFSET 0.750000 0.000000 0.000000
									CHANNELS 3 Zrotation Yrotation Xrotation
									End Site
									{
										OFFSET 0.000000 0.000000 0.000000
									}
								}
							}
						}
					}
				}
				JOINT RightShoulder
				{
					OFFSET 0.000000 0.000000 0.000000
					CHANNELS 3 Zrotation Yrotation Xrotation
					JOINT RightArm
					{
						OFFSET -2.700000 1.550000 -0.730000
						CHANNELS 3 Zrotation Yrotation Xrotation
						JOINT RightForeArm
						{
							OFFSET -5.450000 0.000000 0.000000
							CHANNELS 3 Zrotation Yrotation Xrotation
							JOINT RightHand
							{
								OFFSET -3.450000 0.000000 0.000000
								CHANNELS 3 Zrotation Yrotation Xrotation
								JOINT RightHandIndex1
								{
									OFFSET -0.750000 0.000000 0.000000
									CHANNELS 3 Zrotation Yrotation Xrotation
									End Site
									{
										OFFSET 0.000000 0.000000 0.000000
									}
								}
							}
						}
					}
				}
			}
		}
	}
}
MOTION
Frames: 4
Frame Time: 0.016667
0.869380 17.676090 -1.569670 -4.939173 -19.501925 9.206244 -15.139247 13.236114 3.482072 0.792747 -3.589862 -21.700202 -10.903901 6.948496 16.974828 -0.413580 4.144743 3.185246 0.224900 -0.150880 0.253560 18.290833 -10.810182 2.758179 4.137507 0.311122 -4.265450 1.889833 -5.754571 26.829867 -0.473953 -4.729692 2.987991 -0.068100 0.242020 0.101700 -3.355265 -2.164104 -7.415674 6.266006 0.162582 10.354534 -3.751944 1.034206 0.020246 2.599243 -7.268489 -6.115300 -17.005271 11.929697 40.671745 -5.500690 8.205010 -1.525360 -14.366387 13.274194 -1.453138 -49.695267 6.170064 -10.725811 -6.630163 -34.737649 -0.015510 -3.716089 2.875215 0.489280 0.132690 -0.106830 0.138530 9.032036 -7.361682 3.204930 48.305511 -9.581072 -17.130279 -88.380044 66.212690 -54.647698 1.015955 0.727067 -0.258650 0.196690 0.023270 -0.246800 
0.881340 17.674950 -1.575740 -4.724532 -19.820016 8.904023 -15.153060 13.245834 3.503829 0.582839 -3.721472 -22.024392 -10.713851 7.098567 18.010226 -0.412904 4.216433 3.143138 0.235850 -0.133590 0.258920 18.273963 -10.795445 2.772467 4.030125 0.194374 -3.816235 2.334008 -5.880007 26.291554 -0.482919 -4.714231 2.991200 -0.059200 0.225310 0.094710 -3.303081 -2.214433 -7.451569 5.863849 0.259792 10.755713 -3.718871 1.189196 -0.020527 2.638187 -7.398197 -6.274541 -17.483266 12.260635 41.173163 -5.318030 8.131720 -2.130980 -14.432089 13.095145 -1.447282 -49.499642 5.920174 -10.599261 -6.420318 -35.183230 -0.046045 -3.700353 2.870377 0.503730 0.116470 -0.095460 0.132090 9.056112 -7.002437 3.303540 47.549461 -9.363028 -16.703005 -89.013956 66.000253 -55.183593 1.031155 0.736372 -0.256480 0.202360 0.024970 -0.251010 
0.898060 17.661520 -1.587810 -4.445003 -20.581111 8.658906 -15.157479 13.186742 3.541711 0.296375 -4.036634 -23.005625 -10.393833 7.407606 20.074878 -0.396283 4.389837 3.072147 0.261100 -0.096940 0.267660 18.278265 -10.783521 2.791622 4.052532 0.005339 -3.258948 2.822364 -5.935786 25.183881 -0.488235 -4.663720 3.011486 -0.034050 0.224870 0.086350 -3.301779 -2.157497 -7.466864 5.454845 0.448953 11.038192 -3.991181 1.429994 0.180321 2.544523 -7.617016 -6.300907 -17.864807 12.591615 40.905343 -4.765590 7.922060 -2.918320 -14.186060 12.976410 -1.487157 -49.076450 5.160371 -10.219186 -5.798447 -35.674062 -0.132753 -3.687901 2.871979 0.506600 0.107890 -0.089020 0.142780 8.952974 -6.618081 3.286439 46.552585 -8.446463 -16.003126 -89.015977 65.911817 -55.147272 1.033600 0.719275 -0.256590 0.221470 0.013370 -0.246230 
0.924110 17.649930 -1.606000 -4.402254 -21.670751 8.405732 -15.159505 13.101613 3.633243 0.344170 -4.515217 -24.615298 -10.263430 7.943385 22.937859 -0.378120 4.745248 2.928937 0.277030 -0.079210 0.268100 18.286971 -10.744548 2.809162 4.110188 -0.115907 -2.777055 3.480661 -6.089558 24.417522 -0.496765 -4.661615 3.011999 -0.010430 0.231190 0.081110 -3.315902 -2.125377 -7.525812 5.395266 0.622774 11.687090 -4.343246 1.753900 0.248413 2.505280 -7.978408 -6.432671 -18.630439 13.136931 40.567809 -4.349670 7.775780 -3.675230 -14.235835 12.511527 -1.566358 -48.380499 4.151116 -9.614273 -4.550415 -35.683201 -0.412404 -3.690828 2.857207 0.521670 0.104520 -0.090600 0.147990 9.000605 -5.796101 3.344275 44.740071 -7.465131 -15.299952 -88.444442 65.790821 -54.502686 1.022946 0.671818 -0.270530 0.242950 0.017890 -0.250500 
